<svg width="46" height="46" viewBox="0 0 46 46" fill="none" xmlns="http://www.w3.org/2000/svg">
<path d="M9.79297 36.207C8.13984 34.5539 9.23594 31.0859 8.39141 29.0555C7.54688 27.025 4.3125 25.2461 4.3125 23C4.3125 20.7539 7.51094 19.0469 8.39141 16.9445C9.27188 14.8422 8.13984 11.4461 9.79297 9.79297C11.4461 8.13984 14.9141 9.23594 16.9445 8.39141C18.975 7.54688 20.7539 4.3125 23 4.3125C25.2461 4.3125 26.9531 7.51094 29.0555 8.39141C31.1578 9.27188 34.5539 8.13984 36.207 9.79297C37.8602 11.4461 36.7641 14.9141 37.6086 16.9445C38.4531 18.975 41.6875 20.7539 41.6875 23C41.6875 25.2461 38.4891 26.9531 37.6086 29.0555C36.7281 31.1578 37.8602 34.5539 36.207 36.207C34.5539 37.8602 31.0859 36.7641 29.0555 37.6086C27.025 38.4531 25.2461 41.6875 23 41.6875C20.7539 41.6875 19.0469 38.4891 16.9445 37.6086C14.8422 36.7281 11.4461 37.8602 9.79297 36.207Z" stroke="black" stroke-width="1.5" stroke-linecap="round" stroke-linejoin="round"/>
<path d="M30.9062 18.6875L20.3586 28.75L15.0938 23.7188" stroke="black" stroke-width="1.5" stroke-linecap="round" stroke-linejoin="round"/>
</svg>
