<svg width="154" height="105" viewBox="0 0 154 105" fill="none" xmlns="http://www.w3.org/2000/svg">
<path d="M153.56 97.7819C153.884 98.2294 153.783 98.8545 153.336 99.1783L146.045 104.455C145.597 104.778 144.972 104.678 144.648 104.231C144.325 103.783 144.425 103.158 144.872 102.834L151.353 98.1444L146.663 91.6634C146.339 91.216 146.44 90.5908 146.887 90.267C147.334 89.9432 147.96 90.0434 148.283 90.4909L153.56 97.7819ZM62.5149 16.8963L62.9476 17.7978L62.5149 16.8963ZM110.521 85.3667L110.021 86.2328L110.521 85.3667ZM34.3754 33.9278L34.9165 33.0868L34.3754 33.9278ZM106.021 50.1675L107.003 50.3556L106.021 50.1675ZM152.75 98.3682C152.591 99.3556 152.591 99.3556 152.591 99.3556C152.591 99.3556 152.591 99.3556 152.591 99.3556C152.591 99.3556 152.591 99.3556 152.591 99.3556C152.591 99.3555 152.591 99.3555 152.591 99.3555C152.59 99.3554 152.59 99.3553 152.589 99.3552C152.587 99.355 152.585 99.3546 152.583 99.3542C152.577 99.3533 152.569 99.352 152.559 99.3503C152.538 99.3469 152.507 99.3419 152.466 99.3352C152.385 99.3218 152.265 99.3019 152.109 99.2753C151.797 99.2223 151.338 99.143 150.753 99.0375L151.108 97.0692C151.686 97.1734 152.137 97.2516 152.444 97.3035C152.597 97.3295 152.714 97.3489 152.792 97.3618C152.831 97.3683 152.86 97.3731 152.88 97.3762C152.889 97.3778 152.897 97.379 152.901 97.3798C152.904 97.3801 152.905 97.3804 152.907 97.3806C152.907 97.3807 152.908 97.3807 152.908 97.3808C152.908 97.3808 152.908 97.3808 152.908 97.3808C152.908 97.3808 152.908 97.3808 152.908 97.3808C152.908 97.3808 152.908 97.3808 152.908 97.3808C152.908 97.3808 152.908 97.3808 152.75 98.3682ZM147.105 98.3424C146.016 98.1246 144.795 97.8717 143.471 97.5838L143.896 95.6295C145.208 95.9148 146.418 96.1655 147.497 96.3813L147.105 98.3424ZM139.845 96.7636C138.686 96.4909 137.478 96.1968 136.236 95.8812L136.729 93.9428C137.958 94.2553 139.154 94.5466 140.303 94.8167L139.845 96.7636ZM132.641 94.9308C131.463 94.6069 130.267 94.2652 129.063 93.9057L129.636 91.9893C130.824 92.3443 132.006 92.6821 133.171 93.0024L132.641 94.9308ZM125.508 92.7958C124.327 92.4103 123.147 92.0076 121.98 91.5877L122.657 89.7057C123.804 90.1183 124.964 90.5146 126.129 90.8946L125.508 92.7958ZM118.488 90.2625C117.314 89.7917 116.162 89.3021 115.044 88.7938L115.872 86.9731C116.96 87.4677 118.083 87.9454 119.232 88.4062L118.488 90.2625ZM111.671 87.1432C111.107 86.8455 110.557 86.5421 110.021 86.2328L111.021 84.5007C111.534 84.7967 112.062 85.0881 112.605 85.3749L111.671 87.1432ZM110.021 86.2328C109.442 85.8984 108.854 85.555 108.259 85.203L109.277 83.4814C109.866 83.83 110.448 84.1699 111.021 84.5007L110.021 86.2328ZM104.726 83.0672C103.584 82.3622 102.421 81.6307 101.243 80.8748L102.323 79.1915C103.492 79.9412 104.644 80.6666 105.776 81.3654L104.726 83.0672ZM97.8021 78.6261C96.6745 77.8758 95.5376 77.1062 94.3957 76.3193L95.5306 74.6725C96.6634 75.4532 97.7913 76.2167 98.91 76.961L97.8021 78.6261ZM91.0261 73.956C89.9156 73.1634 88.8041 72.3562 87.6958 71.5363L88.8851 69.9284C89.9842 70.7414 91.0864 71.5419 92.188 72.3282L91.0261 73.956ZM84.4073 69.0585C83.3184 68.2226 82.2362 67.3759 81.1645 66.52L82.4124 64.9572C83.4739 65.8047 84.546 66.6436 85.6252 67.4721L84.4073 69.0585ZM77.972 63.917C76.911 63.033 75.8646 62.1415 74.8365 61.2441L76.1517 59.7374C77.1676 60.6242 78.2024 61.5058 79.2522 62.3803L77.972 63.917ZM71.7666 58.4951C70.7409 57.5517 69.7392 56.6039 68.7661 55.6536L70.1634 54.2227C71.1214 55.1582 72.1085 56.0923 73.1205 57.023L71.7666 58.4951ZM65.855 52.712C64.8829 51.6933 63.9482 50.6738 63.0565 49.6559L64.5608 48.338C65.4324 49.3328 66.3478 50.3314 67.3019 51.3312L65.855 52.712ZM60.4045 46.4685C59.5212 45.3455 58.6972 44.2264 57.9403 43.1149L59.5934 41.9892C60.3219 43.059 61.1185 44.1411 61.9766 45.2322L60.4045 46.4685ZM55.7315 39.5411C55.0225 38.2565 54.4162 36.9835 53.9274 35.7278L55.7912 35.0024C56.2433 36.1638 56.81 37.3562 57.4825 38.5746L55.7315 39.5411ZM52.7521 31.6029C52.4948 30.1085 52.4408 28.6432 52.6245 27.2229L54.608 27.4794C54.4533 28.6755 54.4949 29.9383 54.7231 31.2635L52.7521 31.6029ZM53.9866 22.9989C54.6559 21.7678 55.5572 20.6158 56.6993 19.5503L58.0636 21.0128C57.0651 21.9442 56.3016 22.928 55.7437 23.9542L53.9866 22.9989ZM60.1699 17.007C60.7701 16.6561 61.4074 16.3186 62.0823 15.9947L62.9476 17.7978C62.3185 18.0997 61.7295 18.4119 61.1792 18.7336L60.1699 17.007ZM62.0823 15.9947C62.7457 15.6763 63.4074 15.3822 64.0671 15.1118L64.8257 16.9624C64.2026 17.2178 63.5764 17.496 62.9476 17.7978L62.0823 15.9947ZM68.1767 13.7198C69.6147 13.3343 71.0376 13.0589 72.4412 12.8865L72.685 14.8716C71.3751 15.0325 70.0437 15.2899 68.6945 15.6516L68.1767 13.7198ZM76.7904 12.6759C78.2679 12.7151 79.7152 12.8675 81.127 13.1231L80.7706 15.0911C79.4579 14.8534 78.1119 14.7117 76.7374 14.6752L76.7904 12.6759ZM85.3448 14.2225C86.7269 14.6962 88.0636 15.2699 89.3489 15.9321L88.4329 17.71C87.2315 17.091 85.9841 16.5558 84.6964 16.1145L85.3448 14.2225ZM93.0651 18.1874C94.2499 19.0226 95.3768 19.9362 96.4398 20.9169L95.0836 22.3869C94.0833 21.464 93.0244 20.6056 91.9128 19.8221L93.0651 18.1874ZM99.434 24.0524C100.366 25.1596 101.229 26.3234 102.015 27.5326L100.339 28.6231C99.5965 27.4822 98.783 26.3844 97.904 25.3405L99.434 24.0524ZM104.15 31.3032C104.786 32.608 105.338 33.9486 105.801 35.3134L103.906 35.955C103.472 34.6716 102.952 33.4094 102.352 32.1793L104.15 31.3032ZM106.919 39.5099C107.198 40.9401 107.377 42.3842 107.447 43.8297L105.45 43.9276C105.384 42.5812 105.217 41.2324 104.956 39.8931L106.919 39.5099ZM107.326 48.1914C107.248 48.9162 107.141 49.6382 107.003 50.3556L105.039 49.9794C105.166 49.3169 105.265 48.6493 105.337 47.9782L107.326 48.1914ZM107.003 50.3556C106.859 51.1072 106.678 51.8181 106.46 52.4891L104.558 51.8714C104.749 51.2853 104.91 50.6554 105.039 49.9794L107.003 50.3556ZM104.404 56.4626C103.447 57.6937 102.284 58.6588 100.951 59.3813L99.9979 57.623C101.097 57.0272 102.044 56.2396 102.826 55.2347L104.404 56.4626ZM96.7351 60.804C95.3751 61.0444 93.9238 61.1324 92.4013 61.0902L92.4567 59.091C93.8693 59.1302 95.1828 59.0474 96.3869 58.8345L96.7351 60.804ZM88.1564 60.6798C86.8161 60.4685 85.4321 60.1816 84.0133 59.8286L84.4962 57.8878C85.8663 58.2287 87.1927 58.5032 88.4679 58.7042L88.1564 60.6798ZM79.9534 58.6737C78.6562 58.2619 77.3361 57.8051 75.9989 57.309L76.6946 55.4339C78.0049 55.92 79.2947 56.3663 80.5585 56.7674L79.9534 58.6737ZM72.101 55.7748C70.8332 55.2489 69.5545 54.6935 68.2694 54.1132L69.0925 52.2904C70.3604 52.8629 71.6202 53.4101 72.8674 53.9275L72.101 55.7748ZM64.4916 52.3468C63.2477 51.7461 62.0015 51.1263 60.757 50.4913L61.6659 48.7098C62.8984 49.3386 64.1315 49.9519 65.3613 50.5458L64.4916 52.3468ZM57.0649 48.5624C55.8399 47.908 54.6201 47.2424 53.4094 46.5695L54.3809 44.8213C55.5827 45.4892 56.7927 46.1495 58.0074 46.7984L57.0649 48.5624ZM49.7876 44.5211C48.5767 43.8247 47.3789 43.1246 46.1983 42.4249L47.218 40.7044C48.3916 41.3999 49.5818 42.0956 50.7847 42.7874L49.7876 44.5211ZM42.6289 40.2802C41.4248 39.5472 40.2443 38.819 39.0921 38.1006L40.1504 36.4035C41.2969 37.1184 42.4713 37.8428 43.6689 38.5719L42.6289 40.2802ZM35.5747 35.8831C34.9845 35.5071 34.4042 35.1354 33.8343 34.7687L34.9165 33.0868C35.4839 33.4519 36.0618 33.822 36.6493 34.1963L35.5747 35.8831ZM33.8343 34.7687C33.2727 34.4074 32.7182 34.0428 32.171 33.6755L33.2857 32.0149C33.8223 32.3751 34.3659 32.7326 34.9165 33.0868L33.8343 34.7687ZM28.9129 31.3967C27.8262 30.6055 26.771 29.8054 25.7473 29.0002L26.9839 27.4282C27.9886 28.2186 29.024 29.0036 30.0902 29.7799L28.9129 31.3967ZM22.6715 26.4884C21.6397 25.6142 20.6445 24.7384 19.6857 23.8655L21.0321 22.3866C21.9739 23.244 22.9513 24.1041 23.9643 24.9624L22.6715 26.4884ZM16.7959 21.1404C15.8209 20.1882 14.8902 19.2452 14.0037 18.3174L15.4496 16.9357C16.3208 17.8474 17.2353 18.774 18.1933 19.7095L16.7959 21.1404ZM11.3119 15.4016C10.3885 14.3661 9.52499 13.3601 8.72132 12.3931L10.2594 11.1147C11.0488 12.0646 11.8972 13.053 12.8046 14.0705L11.3119 15.4016ZM6.23658 9.2927C5.34139 8.1332 4.5528 7.06272 3.87057 6.1042L5.49999 4.94447C6.16797 5.88296 6.94113 6.93255 7.81966 8.07047L6.23658 9.2927ZM1.62956 2.79915C1.28254 2.25815 1.02146 1.8339 0.846143 1.54318C0.758488 1.39781 0.692265 1.28581 0.647458 1.20928C0.62506 1.17102 0.608005 1.14161 0.596306 1.12134C0.590452 1.1112 0.585944 1.10334 0.582766 1.0978C0.581177 1.09502 0.579929 1.09284 0.57901 1.09123C0.578545 1.09042 0.578177 1.08976 0.577879 1.08925C0.577737 1.08899 0.577611 1.08877 0.577498 1.08858C0.57745 1.08849 0.57741 1.08841 0.577368 1.08834C0.577339 1.0883 0.577316 1.08825 0.577308 1.08824C0.577285 1.08819 0.577257 1.08815 1.44645 0.593687C2.31565 0.0992242 2.31564 0.0991913 2.31561 0.0991499C2.31561 0.0991467 2.31558 0.0991053 2.31558 0.0990904C2.31556 0.0990575 2.31555 0.0990278 2.31552 0.0990044C2.31551 0.0989715 2.31551 0.0989715 2.31553 0.0990012C2.31557 0.0990755 2.3157 0.0992953 2.3159 0.0996521C2.31631 0.100377 2.31706 0.101687 2.31813 0.103566C2.32029 0.107327 2.32377 0.113397 2.3286 0.121742C2.33822 0.138429 2.35316 0.164206 2.37342 0.198816C2.41396 0.268048 2.47576 0.372601 2.55885 0.510395C2.72504 0.785998 2.97637 1.19453 3.313 1.71932L1.62956 2.79915Z" fill="black"/>
</svg>
