<svg width="54" height="54" viewBox="0 0 54 54" fill="none" xmlns="http://www.w3.org/2000/svg">
<path d="M32.0625 23.625H40.5" stroke="black" stroke-width="1.5" stroke-linecap="round" stroke-linejoin="round"/>
<path d="M32.0625 30.375H40.5" stroke="black" stroke-width="1.5" stroke-linecap="round" stroke-linejoin="round"/>
<path d="M19.426 30.375C22.222 30.375 24.4885 28.1084 24.4885 25.3125C24.4885 22.5166 22.222 20.25 19.426 20.25C16.6301 20.25 14.3635 22.5166 14.3635 25.3125C14.3635 28.1084 16.6301 30.375 19.426 30.375Z" stroke="black" stroke-width="1.5" stroke-linecap="round" stroke-linejoin="round"/>
<path d="M13.5 35.4507C13.8718 33.9988 14.7162 32.7119 15.9001 31.7928C17.0841 30.8738 18.5403 30.375 20.0391 30.375C21.5378 30.375 22.994 30.8738 24.178 31.7928C25.3619 32.7119 26.2064 33.9988 26.5781 35.4507" stroke="black" stroke-width="1.5" stroke-linecap="round" stroke-linejoin="round"/>
<path d="M45.5625 10.125H8.4375C7.50552 10.125 6.75 10.8805 6.75 11.8125V42.1875C6.75 43.1195 7.50552 43.875 8.4375 43.875H45.5625C46.4945 43.875 47.25 43.1195 47.25 42.1875V11.8125C47.25 10.8805 46.4945 10.125 45.5625 10.125Z" stroke="black" stroke-width="1.5" stroke-linecap="round" stroke-linejoin="round"/>
</svg>
