<svg width="75" height="47" viewBox="0 0 75 47" fill="none" xmlns="http://www.w3.org/2000/svg">
<path d="M53.2977 18.9281C51.9732 18.9281 50.1366 19.2564 48.9034 18.7165C46.9382 17.8561 46.632 15.1738 48.356 13.9081C49.2743 13.2338 50.2888 13.0814 51.3188 13.1401C53.722 13.1401 56.2667 13.2678 58.6534 13.2678C60.1023 13.2678 61.4895 13.3923 62.441 14.6489C62.9943 15.3795 62.9105 16.2668 62.9105 17.1334V22.1034C62.9105 24.1364 63.5306 27.1022 61.8112 28.561C60.408 29.7519 58.2083 29.0271 57.5746 27.3496C57.1119 26.1246 57.3339 24.2145 57.3339 22.9174C55.892 24.1599 54.2458 26.0337 52.9126 27.3766C48.9631 31.3547 42.6154 35.8438 45.5129 42.2597C45.8904 43.0953 46.4026 43.8901 47.0409 44.548C47.8925 45.4256 48.8644 46.0504 50.0018 46.4808C56.086 48.7823 60.3439 42.9117 64.0708 39.0729C68.4745 34.5369 75.2978 30.0027 74.9899 22.9317C74.7765 18.0342 71.0904 14.8743 67.8653 11.6906C63.0573 6.94408 58.4522 0.111514 50.8258 1.40607C49.7412 1.59024 48.6505 1.97556 47.6673 2.47298C45.8678 3.38346 44.5215 4.95095 43.1252 6.36493C41.097 8.4188 39.0061 10.415 37.0087 12.4985C35.7481 13.8135 33.2157 15.4694 32.5254 17.157C32.2283 17.8831 32.424 18.9821 32.424 19.7564C32.424 22.0652 32.8908 24.9877 32.1973 27.2115C31.474 29.5303 28.4948 29.7916 27.1786 27.9012C26.3024 26.6428 26.6414 24.5809 26.6414 23.1245C25.7488 23.8838 24.914 24.7773 24.1144 25.5548C22.2982 27.3206 20.4464 29.1004 18.7041 30.9375C17.7654 31.9275 16.7601 33.3332 15.3955 33.7293C13.0894 34.3985 11.1153 31.57 12.3212 29.5605C12.8638 28.6564 13.7703 28.0122 14.4801 27.2524C17.0535 24.4979 20.3748 22.0131 22.5365 18.9281C21.1352 18.9281 19.0918 19.314 17.8679 18.5181C15.7821 17.1615 16.2769 14.2005 18.554 13.4011C20.5418 12.7034 23.592 13.2678 25.695 13.2678C26.432 13.2678 27.7647 13.525 28.3773 13.0465C29.2471 12.3671 29.726 10.8552 29.9501 9.81635C30.818 5.79393 28.5062 1.43258 24.4591 0.312248C18.5193 -1.33187 14.8532 3.87287 11.1384 7.60744C6.38922 12.3819 -0.48728 17.0784 0.0272834 24.5884C0.334758 29.0775 3.79992 31.983 6.74393 34.9427C12.2076 40.4354 18.3611 48.8518 27.0683 44.5915C29.144 43.5759 30.6811 41.803 32.2867 40.1888L39.2904 33.1479L48.4912 23.8981C50.0646 22.3164 52.0174 20.7554 53.2977 18.9281Z" fill="black"/>
</svg>
