<svg width="281" height="281" viewBox="0 0 281 281" fill="none" xmlns="http://www.w3.org/2000/svg">
<path fill-rule="evenodd" clip-rule="evenodd" d="M140.5 97.6987C116.861 97.6987 97.6987 116.861 97.6987 140.5C97.6987 164.139 116.861 183.301 140.5 183.301C164.139 183.301 183.301 164.139 183.301 140.5C183.301 116.861 164.139 97.6987 140.5 97.6987ZM99.5596 140.5C99.5596 117.889 117.889 99.5596 140.5 99.5596C163.111 99.5596 181.44 117.889 181.44 140.5C181.44 163.111 163.111 181.44 140.5 181.44C117.889 181.44 99.5596 163.111 99.5596 140.5Z" fill="black"/>
<path fill-rule="evenodd" clip-rule="evenodd" d="M140.5 90.7202C113.007 90.7202 90.7202 113.007 90.7202 140.5C90.7202 167.993 113.007 190.28 140.5 190.28C167.993 190.28 190.28 167.993 190.28 140.5C190.28 113.007 167.993 90.7202 140.5 90.7202ZM92.5811 140.5C92.5811 114.035 114.035 92.5811 140.5 92.5811C166.965 92.5811 188.419 114.035 188.419 140.5C188.419 166.965 166.965 188.419 140.5 188.419C114.035 188.419 92.5811 166.965 92.5811 140.5Z" fill="black"/>
<path fill-rule="evenodd" clip-rule="evenodd" d="M83.7417 140.5C83.7417 109.153 109.153 83.7417 140.5 83.7417C171.847 83.7417 197.258 109.153 197.258 140.5C197.258 171.847 171.847 197.258 140.5 197.258C109.153 197.258 83.7417 171.847 83.7417 140.5ZM140.5 85.6026C110.181 85.6026 85.6026 110.181 85.6026 140.5C85.6026 170.819 110.181 195.397 140.5 195.397C170.819 195.397 195.397 170.819 195.397 140.5C195.397 110.181 170.819 85.6026 140.5 85.6026Z" fill="black"/>
<path fill-rule="evenodd" clip-rule="evenodd" d="M76.7632 140.5C76.7632 105.299 105.299 76.7632 140.5 76.7632C175.701 76.7632 204.237 105.299 204.237 140.5C204.237 175.701 175.701 204.237 140.5 204.237C105.299 204.237 76.7632 175.701 76.7632 140.5ZM140.5 78.6242C106.327 78.6242 78.6242 106.327 78.6242 140.5C78.6242 174.673 106.327 202.376 140.5 202.376C174.673 202.376 202.376 174.673 202.376 140.5C202.376 106.327 174.673 78.6242 140.5 78.6242Z" fill="black"/>
<path fill-rule="evenodd" clip-rule="evenodd" d="M69.7848 140.5C69.7848 101.445 101.445 69.7848 140.5 69.7848C179.555 69.7848 211.215 101.445 211.215 140.5C211.215 179.555 179.555 211.215 140.5 211.215C101.445 211.215 69.7848 179.555 69.7848 140.5ZM140.5 71.6457C102.473 71.6457 71.6457 102.473 71.6457 140.5C71.6457 178.527 102.473 209.354 140.5 209.354C178.527 209.354 209.354 178.527 209.354 140.5C209.354 102.473 178.527 71.6457 140.5 71.6457Z" fill="black"/>
<path fill-rule="evenodd" clip-rule="evenodd" d="M140.5 62.8063C97.591 62.8063 62.8063 97.591 62.8063 140.5C62.8063 183.409 97.591 218.194 140.5 218.194C183.409 218.194 218.194 183.409 218.194 140.5C218.194 97.591 183.409 62.8063 140.5 62.8063ZM64.6672 140.5C64.6672 98.6187 98.6187 64.6672 140.5 64.6672C182.381 64.6672 216.333 98.6187 216.333 140.5C216.333 182.381 182.381 216.333 140.5 216.333C98.6187 216.333 64.6672 182.381 64.6672 140.5Z" fill="black"/>
<path fill-rule="evenodd" clip-rule="evenodd" d="M55.8278 140.5C55.8278 93.7368 93.7368 55.8278 140.5 55.8278C187.263 55.8278 225.172 93.7368 225.172 140.5C225.172 187.263 187.263 225.172 140.5 225.172C93.7368 225.172 55.8278 187.263 55.8278 140.5ZM140.5 57.6887C94.7646 57.6887 57.6887 94.7646 57.6887 140.5C57.6887 186.235 94.7646 223.311 140.5 223.311C186.235 223.311 223.311 186.235 223.311 140.5C223.311 94.7646 186.235 57.6887 140.5 57.6887Z" fill="black"/>
<path fill-rule="evenodd" clip-rule="evenodd" d="M140.5 48.8493C89.8827 48.8493 48.8493 89.8827 48.8493 140.5C48.8493 191.117 89.8827 232.151 140.5 232.151C191.117 232.151 232.151 191.117 232.151 140.5C232.151 89.8827 191.117 48.8493 140.5 48.8493ZM50.7103 140.5C50.7103 90.9105 90.9105 50.7103 140.5 50.7103C190.089 50.7103 230.29 90.9105 230.29 140.5C230.29 190.089 190.089 230.29 140.5 230.29C90.9105 230.29 50.7103 190.089 50.7103 140.5Z" fill="black"/>
<path fill-rule="evenodd" clip-rule="evenodd" d="M41.8709 140.5C41.8709 86.0286 86.0286 41.8709 140.5 41.8709C194.971 41.8709 239.129 86.0286 239.129 140.5C239.129 194.971 194.971 239.129 140.5 239.129C86.0286 239.129 41.8709 194.971 41.8709 140.5ZM140.5 43.7318C87.0564 43.7318 43.7318 87.0564 43.7318 140.5C43.7318 193.944 87.0564 237.268 140.5 237.268C193.944 237.268 237.268 193.944 237.268 140.5C237.268 87.0564 193.944 43.7318 140.5 43.7318Z" fill="black"/>
<path fill-rule="evenodd" clip-rule="evenodd" d="M140.5 34.8924C82.1745 34.8924 34.8924 82.1745 34.8924 140.5C34.8924 198.825 82.1745 246.108 140.5 246.108C198.825 246.108 246.108 198.825 246.108 140.5C246.108 82.1745 198.825 34.8924 140.5 34.8924ZM36.7533 140.5C36.7533 83.2023 83.2023 36.7533 140.5 36.7533C197.798 36.7533 244.247 83.2023 244.247 140.5C244.247 197.798 197.798 244.247 140.5 244.247C83.2023 244.247 36.7533 197.798 36.7533 140.5Z" fill="black"/>
<path fill-rule="evenodd" clip-rule="evenodd" d="M27.9139 140.5C27.9139 78.3204 78.3204 27.9139 140.5 27.9139C202.68 27.9139 253.086 78.3204 253.086 140.5C253.086 202.68 202.68 253.086 140.5 253.086C78.3204 253.086 27.9139 202.68 27.9139 140.5ZM140.5 29.7748C79.3482 29.7748 29.7748 79.3482 29.7748 140.5C29.7748 201.652 79.3482 251.225 140.5 251.225C201.652 251.225 251.225 201.652 251.225 140.5C251.225 79.3482 201.652 29.7748 140.5 29.7748Z" fill="black"/>
<path fill-rule="evenodd" clip-rule="evenodd" d="M140.5 20.9354C74.4663 20.9354 20.9354 74.4663 20.9354 140.5C20.9354 206.534 74.4663 260.065 140.5 260.065C206.534 260.065 260.065 206.534 260.065 140.5C260.065 74.4663 206.534 20.9354 140.5 20.9354ZM22.7964 140.5C22.7964 75.4941 75.4941 22.7964 140.5 22.7964C205.506 22.7964 258.204 75.4941 258.204 140.5C258.204 205.506 205.506 258.204 140.5 258.204C75.4941 258.204 22.7964 205.506 22.7964 140.5Z" fill="black"/>
<path fill-rule="evenodd" clip-rule="evenodd" d="M13.957 140.5C13.957 70.6122 70.6122 13.957 140.5 13.957C210.388 13.957 267.043 70.6122 267.043 140.5C267.043 210.388 210.388 267.043 140.5 267.043C70.6122 267.043 13.957 210.388 13.957 140.5ZM140.5 15.8179C71.64 15.8179 15.8179 71.64 15.8179 140.5C15.8179 209.36 71.64 265.182 140.5 265.182C209.36 265.182 265.182 209.36 265.182 140.5C265.182 71.64 209.36 15.8179 140.5 15.8179Z" fill="black"/>
<path fill-rule="evenodd" clip-rule="evenodd" d="M140.5 6.97848C66.7581 6.97848 6.97848 66.7581 6.97848 140.5C6.97848 214.242 66.7581 274.022 140.5 274.022C214.242 274.022 274.022 214.242 274.022 140.5C274.022 66.7581 214.242 6.97848 140.5 6.97848ZM8.8394 140.5C8.8394 67.7859 67.7859 8.8394 140.5 8.8394C213.214 8.8394 272.161 67.7859 272.161 140.5C272.161 213.214 213.214 272.161 140.5 272.161C67.7859 272.161 8.8394 213.214 8.8394 140.5Z" fill="black"/>
<path fill-rule="evenodd" clip-rule="evenodd" d="M0 140.5C0 62.904 62.904 0 140.5 0C218.096 0 281 62.904 281 140.5C281 218.096 218.096 281 140.5 281C62.904 281 0 218.096 0 140.5ZM140.5 1.86093C63.9318 1.86093 1.86093 63.9318 1.86093 140.5C1.86093 217.068 63.9318 279.139 140.5 279.139C217.068 279.139 279.139 217.068 279.139 140.5C279.139 63.9318 217.068 1.86093 140.5 1.86093Z" fill="black"/>
</svg>
